<?xml version="1.0" standalone="no"?>
<!DOCTYPE svg PUBLIC "-//W3C//DTD SVG 20010904//EN"
 "http://www.w3.org/TR/2001/REC-SVG-20010904/DTD/svg10.dtd">
<svg version="1.0" xmlns="http://www.w3.org/2000/svg"
 width="97.000000pt" height="97.000000pt" viewBox="0 0 97.000000 97.000000"
 preserveAspectRatio="xMidYMid meet">
<metadata>
Created by potrace 1.14, written by Peter Selinger 2001-2017
</metadata>
<g transform="translate(0.000000,97.000000) scale(0.100000,-0.100000)"
fill="#000000" stroke="none">
<path d="M170 829 c-58 -33 -111 -65 -117 -71 -10 -8 -13 -72 -13 -257 0 -135
4 -251 8 -258 4 -7 59 -42 121 -78 155 -90 168 -86 167 48 -1 37 3 67 8 67 4
0 38 -16 75 -37 l67 -36 75 39 75 40 2 -80 c2 -80 12 -106 40 -106 22 0 241
130 250 149 6 12 8 386 3 486 -1 15 -32 39 -116 88 -63 37 -123 67 -133 67
-11 0 -59 -23 -107 -50 l-87 -51 -89 51 c-49 27 -97 50 -106 50 -10 0 -65 -28
-123 -61z m215 -79 c48 -27 94 -50 102 -50 9 0 55 23 103 50 48 28 90 50 93
50 3 0 31 -15 61 -33 l56 -34 -154 -91 c-85 -51 -157 -92 -160 -92 -4 0 -66
34 -139 77 -73 42 -143 82 -156 89 l-23 12 23 15 c13 7 40 24 59 35 19 12 38
22 42 22 3 0 45 -22 93 -50z m463 -277 l-3 -187 -59 -33 c-32 -18 -60 -33 -61
-33 -2 0 -3 34 -3 75 1 76 -10 105 -39 105 -7 0 -43 -16 -79 -35 -35 -19 -67
-35 -69 -35 -3 0 -5 33 -5 73 l1 72 152 92 c84 50 155 92 160 92 4 1 6 -83 5
-186z m-668 152 c22 -14 41 -25 43 -25 2 0 53 -29 113 -65 l108 -64 1 -71 c0
-38 -2 -70 -4 -70 -3 0 -36 16 -74 36 -59 30 -74 34 -93 25 -22 -10 -24 -16
-24 -91 l0 -81 -59 32 c-33 18 -61 40 -63 48 -3 14 -2 322 1 344 2 11 9 9 51
-18z"/>
</g>
</svg>
